<svg width="34" height="34" viewBox="0 0 34 34" fill="none" xmlns="http://www.w3.org/2000/svg">
<path d="M14.166 10.6248C14.166 10.437 14.2406 10.2568 14.3735 10.124C14.5063 9.99113 14.6865 9.9165 14.8743 9.9165H20.541C20.7289 9.9165 20.909 9.99113 21.0419 10.124C21.1747 10.2568 21.2493 10.437 21.2493 10.6248C21.2493 10.8127 21.1747 10.9929 21.0419 11.1257C20.909 11.2585 20.7289 11.3332 20.541 11.3332H14.8743C14.6865 11.3332 14.5063 11.2585 14.3735 11.1257C14.2406 10.9929 14.166 10.8127 14.166 10.6248ZM14.8743 12.7498C14.6865 12.7498 14.5063 12.8245 14.3735 12.9573C14.2406 13.0901 14.166 13.2703 14.166 13.4582C14.166 13.646 14.2406 13.8262 14.3735 13.959C14.5063 14.0919 14.6865 14.1665 14.8743 14.1665H20.541C20.7289 14.1665 20.909 14.0919 21.0419 13.959C21.1747 13.8262 21.2493 13.646 21.2493 13.4582C21.2493 13.2703 21.1747 13.0901 21.0419 12.9573C20.909 12.8245 20.7289 12.7498 20.541 12.7498H14.8743ZM14.166 19.8332C14.166 19.6453 14.2406 19.4651 14.3735 19.3323C14.5063 19.1995 14.6865 19.1248 14.8743 19.1248H20.541C20.7289 19.1248 20.909 19.1995 21.0419 19.3323C21.1747 19.4651 21.2493 19.6453 21.2493 19.8332C21.2493 20.021 21.1747 20.2012 21.0419 20.334C20.909 20.4669 20.7289 20.5415 20.541 20.5415H14.8743C14.6865 20.5415 14.5063 20.4669 14.3735 20.334C14.2406 20.2012 14.166 20.021 14.166 19.8332ZM14.8743 21.9582C14.6865 21.9582 14.5063 22.0328 14.3735 22.1656C14.2406 22.2985 14.166 22.4786 14.166 22.6665C14.166 22.8544 14.2406 23.0345 14.3735 23.1674C14.5063 23.3002 14.6865 23.3748 14.8743 23.3748H20.541C20.7289 23.3748 20.909 23.3002 21.0419 23.1674C21.1747 23.0345 21.2493 22.8544 21.2493 22.6665C21.2493 22.4786 21.1747 22.2985 21.0419 22.1656C20.909 22.0328 20.7289 21.9582 20.541 21.9582H14.8743Z" fill="#FFB800"/>
<path fill-rule="evenodd" clip-rule="evenodd" d="M7.08398 19.1248C7.08398 18.937 7.15861 18.7568 7.29145 18.624C7.42429 18.4911 7.60446 18.4165 7.79232 18.4165H11.334C11.5218 18.4165 11.702 18.4911 11.8349 18.624C11.9677 18.7568 12.0423 18.937 12.0423 19.1248V22.6665C12.0423 22.8544 11.9677 23.0345 11.8349 23.1674C11.702 23.3002 11.5218 23.3748 11.334 23.3748H7.79232C7.60446 23.3748 7.42429 23.3002 7.29145 23.1674C7.15861 23.0345 7.08398 22.8544 7.08398 22.6665V19.1248ZM8.50065 19.8332V21.9582H10.6257V19.8332H8.50065Z" fill="#FFB800"/>
<path d="M12.5422 11.1257C12.6712 10.9921 12.7426 10.8132 12.741 10.6275C12.7394 10.4417 12.6649 10.2641 12.5336 10.1328C12.4023 10.0014 12.2246 9.92693 12.0389 9.92532C11.8532 9.92371 11.6742 9.9951 11.5406 10.1241L9.20809 12.4567L8.29222 11.5408C8.15862 11.4118 7.9797 11.3404 7.79398 11.342C7.60825 11.3436 7.43059 11.4181 7.29926 11.5494C7.16793 11.6808 7.09344 11.8584 7.09182 12.0441C7.09021 12.2299 7.16161 12.4088 7.29063 12.5424L9.20809 14.4598L12.5422 11.1257Z" fill="#FFB800"/>
<path fill-rule="evenodd" clip-rule="evenodd" d="M7.08333 4.25C6.33189 4.25 5.61122 4.54851 5.07986 5.07986C4.54851 5.61122 4.25 6.33189 4.25 7.08333V26.9167C4.25 27.6681 4.54851 28.3888 5.07986 28.9201C5.61122 29.4515 6.33189 29.75 7.08333 29.75H21.25C22.0014 29.75 22.7221 29.4515 23.2535 28.9201C23.7848 28.3888 24.0833 27.6681 24.0833 26.9167V7.08333C24.0833 6.33189 23.7848 5.61122 23.2535 5.07986C22.7221 4.54851 22.0014 4.25 21.25 4.25H7.08333ZM5.66667 7.08333C5.66667 6.70761 5.81592 6.34728 6.0816 6.0816C6.34728 5.81592 6.70761 5.66667 7.08333 5.66667H21.25C21.6257 5.66667 21.9861 5.81592 22.2517 6.0816C22.5174 6.34728 22.6667 6.70761 22.6667 7.08333V26.9167C22.6667 27.2924 22.5174 27.6527 22.2517 27.9184C21.9861 28.1841 21.6257 28.3333 21.25 28.3333H7.08333C6.70761 28.3333 6.34728 28.1841 6.0816 27.9184C5.81592 27.6527 5.66667 27.2924 5.66667 26.9167V7.08333ZM25.5 11.3333C25.5 10.7697 25.7239 10.2292 26.1224 9.83073C26.5209 9.43222 27.0614 9.20833 27.625 9.20833C28.1886 9.20833 28.7291 9.43222 29.1276 9.83073C29.5261 10.2292 29.75 10.7697 29.75 11.3333V25.7146L27.625 28.9021L25.5 25.7146V11.3333ZM27.625 10.625C27.4371 10.625 27.257 10.6996 27.1241 10.8325C26.9913 10.9653 26.9167 11.1455 26.9167 11.3333V12.75H28.3333V11.3333C28.3333 11.1455 28.2587 10.9653 28.1259 10.8325C27.993 10.6996 27.8129 10.625 27.625 10.625ZM27.625 26.3479L26.9167 25.2854V14.1667H28.3333V25.2854L27.625 26.3479Z" fill="#FFB800"/>
</svg>
