<svg width="34" height="34" viewBox="0 0 34 34" fill="none" xmlns="http://www.w3.org/2000/svg">
<path d="M3.89648 2.8335C3.89648 2.5517 3.78454 2.28145 3.58529 2.0822C3.38603 1.88294 3.11578 1.771 2.83398 1.771C2.55219 1.771 2.28194 1.88294 2.08268 2.0822C1.88343 2.28145 1.77148 2.5517 1.77148 2.8335V17.0809C1.77148 20.352 1.77148 22.9147 2.04065 24.9151C2.31548 26.9607 2.89065 28.5757 4.15715 29.8437C5.42507 31.1116 7.04007 31.6853 9.08715 31.9602C11.0861 32.2293 13.6488 32.2293 16.9199 32.2293H31.1673C31.4491 32.2293 31.7194 32.1174 31.9186 31.9181C32.1179 31.7189 32.2298 31.4486 32.2298 31.1668C32.2298 30.885 32.1179 30.6148 31.9186 30.4155C31.7194 30.2163 31.4491 30.1043 31.1673 30.1043H17.0007C13.6318 30.1043 11.2122 30.1015 9.37048 29.855C7.55857 29.6113 6.46632 29.1467 5.65882 28.3406C4.85273 27.5331 4.38948 26.4422 4.14582 24.6303C3.89932 22.7887 3.89648 20.369 3.89648 17.0002V2.8335Z" fill="#FFB800"/>
<path d="M27.7488 10.5767C27.8385 10.4678 27.9056 10.342 27.9462 10.2068C27.9868 10.0716 28 9.92966 27.9851 9.78928C27.9702 9.64891 27.9275 9.51291 27.8595 9.38923C27.7915 9.26554 27.6994 9.15666 27.5888 9.06894C27.4782 8.98121 27.3513 8.91641 27.2154 8.8783C27.0794 8.8402 26.9373 8.82957 26.7972 8.84702C26.6571 8.86447 26.5219 8.90967 26.3995 8.97996C26.2771 9.05025 26.1699 9.14423 26.0842 9.25641L21.667 14.8182C21.32 15.256 21.0919 15.5407 20.9035 15.7476C20.7193 15.9502 20.6343 16.0068 20.5946 16.0281C20.4473 16.1066 20.2836 16.1493 20.1168 16.1528C19.9499 16.1562 19.7845 16.1203 19.6341 16.0479C19.5945 16.0295 19.5066 15.9771 19.3125 15.783C19.117 15.5847 18.8762 15.3084 18.5107 14.8862L18.4866 14.8607C18.1509 14.4726 17.8633 14.1411 17.6083 13.8861C17.3478 13.6075 17.041 13.376 16.7016 13.2018C16.25 12.9849 15.7536 12.8775 15.2527 12.8884C14.7518 12.8992 14.2605 13.0279 13.8187 13.2642C13.4865 13.4525 13.1893 13.697 12.9404 13.9867C12.6995 14.253 12.4261 14.5958 12.106 14.9996L7.66755 20.5897C7.57464 20.6983 7.50456 20.8244 7.46151 20.9606C7.41846 21.0968 7.40332 21.2403 7.41699 21.3825C7.43066 21.5247 7.47286 21.6626 7.54107 21.7882C7.60929 21.9137 7.70211 22.0241 7.81399 22.113C7.92587 22.2018 8.05451 22.2671 8.19222 22.3051C8.32993 22.3431 8.47389 22.3529 8.61548 22.3339C8.75706 22.315 8.89338 22.2677 9.01627 22.1949C9.13916 22.122 9.24611 22.0252 9.33071 21.9101L13.7493 16.3482C14.0964 15.9105 14.3245 15.6257 14.5115 15.4189C14.6956 15.2163 14.7806 15.1597 14.8203 15.1384C14.9676 15.0599 15.1313 15.0172 15.2982 15.0137C15.4651 15.0103 15.6304 15.0462 15.7808 15.1186C15.8219 15.137 15.9097 15.1894 16.1024 15.3835C16.2993 15.5818 16.5387 15.8581 16.9056 16.2802L16.9283 16.3057C17.2655 16.6939 17.5516 17.0254 17.8066 17.2804C18.0687 17.5453 18.3577 17.7932 18.7133 17.9647C19.1649 18.1816 19.6613 18.289 20.1622 18.2781C20.6631 18.2673 21.1544 18.1386 21.5962 17.9023C21.9281 17.7134 22.2252 17.4691 22.4745 17.1798C22.7154 16.9135 22.9888 16.5707 23.3104 16.1669L27.7488 10.5767Z" fill="#FFB800"/>
</svg>
