<svg width="26" height="27" viewBox="0 0 26 27" fill="none" xmlns="http://www.w3.org/2000/svg">
<path d="M24.9398 11.6228L14.3148 0.997791C14.1422 0.825112 13.9372 0.688134 13.7116 0.59468C13.486 0.501226 13.2442 0.453125 13 0.453125C12.7558 0.453125 12.514 0.501226 12.2884 0.59468C12.0628 0.688134 11.8578 0.825112 11.6852 0.997791L1.06016 11.6228C0.887035 11.7951 0.749773 12 0.656309 12.2257C0.562845 12.4514 0.515031 12.6934 0.515631 12.9376V25.6876C0.515631 25.899 0.599587 26.1017 0.74903 26.2511C0.898473 26.4006 1.10116 26.4845 1.31251 26.4845H9.81251C10.0238 26.4845 10.2265 26.4006 10.376 26.2511C10.5254 26.1017 10.6094 25.899 10.6094 25.6876V17.9845H15.3906V25.6876C15.3906 25.899 15.4746 26.1017 15.624 26.2511C15.7735 26.4006 15.9762 26.4845 16.1875 26.4845H24.6875C24.8989 26.4845 25.1015 26.4006 25.251 26.2511C25.4004 26.1017 25.4844 25.899 25.4844 25.6876V12.9376C25.485 12.6934 25.4372 12.4514 25.3437 12.2257C25.2502 12 25.113 11.7951 24.9398 11.6228ZM23.8906 24.8908H16.9844V17.1876C16.9844 16.9763 16.9004 16.7736 16.751 16.6242C16.6015 16.4747 16.3988 16.3908 16.1875 16.3908H9.81251C9.60116 16.3908 9.39847 16.4747 9.24903 16.6242C9.09959 16.7736 9.01563 16.9763 9.01563 17.1876V24.8908H2.10938V12.9376C2.10918 12.9027 2.11588 12.868 2.1291 12.8357C2.14232 12.8033 2.16179 12.7739 2.18641 12.749L12.8114 2.12404C12.8361 2.09914 12.8655 2.07938 12.8979 2.0659C12.9302 2.05241 12.9649 2.04547 13 2.04547C13.0351 2.04547 13.0698 2.05241 13.1022 2.0659C13.1345 2.07938 13.1639 2.09914 13.1886 2.12404L23.8136 12.749C23.8382 12.7739 23.8577 12.8033 23.8709 12.8357C23.8841 12.868 23.8908 12.9027 23.8906 12.9376V24.8908Z" fill="#FFB800"/>
</svg>
