<svg width="34" height="34" viewBox="0 0 34 34" fill="none" xmlns="http://www.w3.org/2000/svg">
<path d="M21.25 5.66683V2.8335M21.25 5.66683V8.50016M21.25 5.66683H14.875M4.25 14.1668V26.9168C4.25 27.6683 4.54851 28.3889 5.07986 28.9203C5.61122 29.4517 6.33189 29.7502 7.08333 29.7502H26.9167C27.6681 29.7502 28.3888 29.4517 28.9201 28.9203C29.4515 28.3889 29.75 27.6683 29.75 26.9168V14.1668M4.25 14.1668H29.75M4.25 14.1668V8.50016C4.25 7.74872 4.54851 7.02805 5.07986 6.49669C5.61122 5.96534 6.33189 5.66683 7.08333 5.66683H9.91667M29.75 14.1668V8.50016C29.75 7.74872 29.4515 7.02805 28.9201 6.49669C28.3888 5.96534 27.6681 5.66683 26.9167 5.66683H26.2083M9.91667 2.8335V8.50016" stroke="#FFB800" stroke-width="1.5" stroke-linecap="round" stroke-linejoin="round"/>
</svg>
