<svg width="34" height="34" viewBox="0 0 34 34" fill="none" xmlns="http://www.w3.org/2000/svg">
<path d="M23.5351 22.7872C19.805 24.8881 17.6757 29.2401 17 30.4585V11.3335C17.5879 10.2766 19.2695 7.24779 22.1453 5.19079C23.3566 4.32379 23.9615 3.89029 24.7308 4.28412C25.5 4.68079 25.5 5.55346 25.5 7.29737V19.8207C25.5 20.7642 25.5 21.236 25.3059 21.566C25.1133 21.8975 24.5863 22.1936 23.5351 22.7872Z" stroke="#FFB800" stroke-width="1.5" stroke-linecap="round" stroke-linejoin="round"/>
<path d="M17.0007 11.0586C16.0274 10.0358 13.2068 7.6076 8.47232 6.7576C6.07532 6.32552 4.87682 6.11018 3.85398 6.9361C2.83398 7.76343 2.83398 9.1036 2.83398 11.7882V21.4343C2.83398 23.8879 2.83398 25.1148 3.4899 25.8812C4.1444 26.6462 5.58657 26.9068 8.47373 27.4253C11.045 27.8872 13.0524 28.6253 14.5059 29.3662C15.9367 30.0943 16.6507 30.4584 17.0007 30.4584C17.3506 30.4584 18.066 30.0943 19.494 29.3662C20.9489 28.6253 22.9563 27.8872 25.529 27.4253C28.4133 26.9068 29.8569 26.6462 30.5114 25.8812C31.1673 25.1148 31.1673 23.8879 31.1673 21.4329V11.7896C31.1673 9.10643 31.1673 7.76485 30.1473 6.93752C29.1231 6.11018 26.9173 6.7576 25.5007 7.79177" stroke="#FFB800" stroke-width="1.5" stroke-linecap="round" stroke-linejoin="round"/>
</svg>
