<svg width="34" height="34" viewBox="0 0 34 34" fill="none" xmlns="http://www.w3.org/2000/svg">
<circle cx="17" cy="17" r="17" fill="black"/>
<path d="M11.5802 17.0002L18.6569 9.72775C18.7151 9.66914 18.7612 9.59956 18.7924 9.52303C18.8236 9.44651 18.8393 9.36455 18.8386 9.28192C18.8379 9.19928 18.8208 9.1176 18.7884 9.0416C18.7559 8.9656 18.7087 8.8968 18.6495 8.83917C18.5902 8.78154 18.5202 8.73622 18.4433 8.70585C18.3665 8.67548 18.2843 8.66065 18.2017 8.66222C18.1191 8.6638 18.0376 8.68174 17.9619 8.71502C17.8863 8.74829 17.818 8.79624 17.761 8.85608L10.261 16.5644C10.1475 16.6811 10.084 16.8375 10.084 17.0002C10.084 17.163 10.1475 17.3194 10.261 17.4361L17.761 25.1444C17.818 25.2043 17.8863 25.2522 17.9619 25.2855C18.0376 25.3188 18.1191 25.3367 18.2017 25.3383C18.2843 25.3398 18.3665 25.325 18.4433 25.2946C18.5202 25.2643 18.5902 25.219 18.6495 25.1613C18.7087 25.1037 18.7559 25.0349 18.7884 24.9589C18.8208 24.8829 18.8379 24.8012 18.8386 24.7186C18.8393 24.6359 18.8236 24.554 18.7924 24.4775C18.7612 24.4009 18.7151 24.3314 18.6569 24.2727L11.5802 17.0002Z" fill="#F5F5F5"/>
</svg>
