<svg width="34" height="34" viewBox="0 0 34 34" fill="none" xmlns="http://www.w3.org/2000/svg">
<circle cx="17" cy="17" r="17" transform="matrix(-1 0 0 1 34 0)" fill="black"/>
<path d="M22.4198 17.0002L15.3431 9.72775C15.2849 9.66914 15.2388 9.59956 15.2076 9.52303C15.1764 9.44651 15.1607 9.36455 15.1614 9.28192C15.1621 9.19928 15.1792 9.1176 15.2116 9.0416C15.2441 8.9656 15.2913 8.8968 15.3505 8.83917C15.4098 8.78154 15.4798 8.73622 15.5567 8.70585C15.6335 8.67548 15.7157 8.66065 15.7983 8.66222C15.8809 8.6638 15.9624 8.68174 16.0381 8.71502C16.1137 8.74829 16.182 8.79624 16.239 8.85608L23.739 16.5644C23.8525 16.6811 23.916 16.8375 23.916 17.0002C23.916 17.163 23.8525 17.3194 23.739 17.4361L16.239 25.1444C16.182 25.2043 16.1137 25.2522 16.0381 25.2855C15.9624 25.3188 15.8809 25.3367 15.7983 25.3383C15.7157 25.3398 15.6335 25.325 15.5567 25.2946C15.4798 25.2643 15.4098 25.219 15.3505 25.1613C15.2913 25.1037 15.2441 25.0349 15.2116 24.9589C15.1792 24.8829 15.1621 24.8012 15.1614 24.7186C15.1607 24.6359 15.1764 24.554 15.2076 24.4775C15.2388 24.4009 15.2849 24.3314 15.3431 24.2727L22.4198 17.0002Z" fill="#F5F5F5"/>
</svg>
