<svg width="34" height="34" viewBox="0 0 34 34" fill="none" xmlns="http://www.w3.org/2000/svg">
<path d="M21.25 5.66634V2.83301M21.25 5.66634V8.49967M21.25 5.66634H14.875M4.25 14.1663V26.9163C4.25 27.6678 4.54851 28.3885 5.07986 28.9198C5.61122 29.4512 6.33189 29.7497 7.08333 29.7497H26.9167C27.6681 29.7497 28.3888 29.4512 28.9201 28.9198C29.4515 28.3885 29.75 27.6678 29.75 26.9163V14.1663M4.25 14.1663H29.75M4.25 14.1663V8.49967C4.25 7.74823 4.54851 7.02756 5.07986 6.49621C5.61122 5.96485 6.33189 5.66634 7.08333 5.66634H9.91667M29.75 14.1663V8.49967C29.75 7.74823 29.4515 7.02756 28.9201 6.49621C28.3888 5.96485 27.6681 5.66634 26.9167 5.66634H26.2083M9.91667 2.83301V8.49967" stroke="#A532D1" stroke-width="1.5" stroke-linecap="round" stroke-linejoin="round"/>
</svg>
