<svg width="40" height="40" viewBox="0 0 40 40" fill="none" xmlns="http://www.w3.org/2000/svg">
<path d="M3.33008 13.333C3.33008 15.568 16.8234 21.6664 19.9767 21.6664C23.1301 21.6664 36.6217 15.568 36.6217 13.333C36.6217 11.0947 23.1284 4.99805 19.9767 4.99805C16.8251 4.99805 3.33008 11.0964 3.33008 13.333Z" stroke="black" stroke-width="1.5" stroke-linecap="round" stroke-linejoin="round"/>
<path d="M9.98633 18.333L12.0713 27.9997C12.2147 28.663 12.5447 29.2813 13.0947 29.6747C16.798 32.333 23.1513 32.333 26.8547 29.6747C27.4047 29.2813 27.733 28.663 27.8763 27.9997L29.9613 18.333M34.128 15.833V27.4997M34.128 27.4997C32.8113 29.9113 32.228 31.203 31.6347 33.3347C31.5063 34.093 31.608 34.4747 32.1313 34.8147C32.343 34.953 32.598 35.0013 32.8497 35.0013H35.3813C35.6504 35.0104 35.916 34.9378 36.143 34.793C36.628 34.458 36.753 34.0897 36.6213 33.3347C36.103 31.3563 35.4413 29.9997 34.128 27.4997Z" stroke="black" stroke-width="1.5" stroke-linecap="round" stroke-linejoin="round"/>
</svg>
