<svg width="34" height="34" viewBox="0 0 34 34" fill="none" xmlns="http://www.w3.org/2000/svg">
<path d="M28.9398 14.6228L18.3148 3.99779C18.1422 3.82511 17.9372 3.68813 17.7116 3.59468C17.486 3.50123 17.2442 3.45312 17 3.45312C16.7558 3.45312 16.514 3.50123 16.2884 3.59468C16.0628 3.68813 15.8578 3.82511 15.6852 3.99779L5.06016 14.6228C4.88703 14.7951 4.74977 15 4.65631 15.2257C4.56284 15.4514 4.51503 15.6934 4.51563 15.9376V28.6876C4.51563 28.899 4.59959 29.1017 4.74903 29.2511C4.89847 29.4006 5.10116 29.4845 5.31251 29.4845H13.8125C14.0238 29.4845 14.2265 29.4006 14.376 29.2511C14.5254 29.1017 14.6094 28.899 14.6094 28.6876V20.9845H19.3906V28.6876C19.3906 28.899 19.4746 29.1017 19.624 29.2511C19.7735 29.4006 19.9762 29.4845 20.1875 29.4845H28.6875C28.8989 29.4845 29.1015 29.4006 29.251 29.2511C29.4004 29.1017 29.4844 28.899 29.4844 28.6876V15.9376C29.485 15.6934 29.4372 15.4514 29.3437 15.2257C29.2502 15 29.113 14.7951 28.9398 14.6228ZM27.8906 27.8908H20.9844V20.1876C20.9844 19.9763 20.9004 19.7736 20.751 19.6242C20.6015 19.4747 20.3988 19.3908 20.1875 19.3908H13.8125C13.6012 19.3908 13.3985 19.4747 13.249 19.6242C13.0996 19.7736 13.0156 19.9763 13.0156 20.1876V27.8908H6.10938V15.9376C6.10918 15.9027 6.11588 15.868 6.1291 15.8357C6.14232 15.8033 6.16179 15.7739 6.18641 15.749L16.8114 5.12404C16.8361 5.09914 16.8655 5.07938 16.8979 5.0659C16.9302 5.05241 16.9649 5.04547 17 5.04547C17.0351 5.04547 17.0698 5.05241 17.1022 5.0659C17.1345 5.07938 17.1639 5.09914 17.1886 5.12404L27.8136 15.749C27.8382 15.7739 27.8577 15.8033 27.8709 15.8357C27.8841 15.868 27.8908 15.9027 27.8906 15.9376V27.8908Z" fill="#9C30C5"/>
</svg>
