<svg width="775" height="373" viewBox="0 0 775 373" fill="none" xmlns="http://www.w3.org/2000/svg">
<g clip-path="url(#clip0_378_2)">
<rect width="775" height="373" fill="black"/>
<g filter="url(#filter0_f_378_2)">
<path d="M156.357 -16.1424L61.9405 23.335C51.555 27.6773 42.7193 35.0488 36.5858 44.4877L-19.2514 130.417C-30.489 147.711 -31.3114 169.781 -21.3921 187.863L50.8777 319.605C55.8271 328.627 63.5529 335.814 72.9091 340.099C95.1421 350.28 121.474 342.062 133.97 321.042L156.843 282.564C162.488 273.067 170.816 265.452 180.779 260.678L319.513 194.195C355.212 177.088 362.374 129.349 333.267 102.518L215.914 -5.65272C199.818 -20.4891 176.553 -24.5867 156.357 -16.1424Z" fill="url(#paint0_linear_378_2)"/>
<path d="M156.357 -16.1424L61.9405 23.335C51.555 27.6773 42.7193 35.0488 36.5858 44.4877L-19.2514 130.417C-30.489 147.711 -31.3114 169.781 -21.3921 187.863L50.8777 319.605C55.8271 328.627 63.5529 335.814 72.9091 340.099C95.1421 350.28 121.474 342.062 133.97 321.042L156.843 282.564C162.488 273.067 170.816 265.452 180.779 260.678L319.513 194.195C355.212 177.088 362.374 129.349 333.267 102.518L215.914 -5.65272C199.818 -20.4891 176.553 -24.5867 156.357 -16.1424Z" stroke="black"/>
</g>
<g filter="url(#filter1_f_378_2)">
<path d="M514.015 214.672L460.955 205.881C442.545 202.83 423.825 209.151 411.032 222.736L391.582 243.391C381 254.629 366.248 261 350.813 261H333.503C306.992 261 284.114 279.59 278.688 305.54L265.951 366.466C261.17 389.339 271.093 412.776 290.845 425.261L363.149 470.966C388.097 486.735 421.001 480.436 438.36 456.567L550.15 302.857C574.648 269.171 555.107 221.481 514.015 214.672Z" fill="url(#paint1_linear_378_2)"/>
<path d="M514.015 214.672L460.955 205.881C442.545 202.83 423.825 209.151 411.032 222.736L391.582 243.391C381 254.629 366.248 261 350.813 261H333.503C306.992 261 284.114 279.59 278.688 305.54L265.951 366.466C261.17 389.339 271.093 412.776 290.845 425.261L363.149 470.966C388.097 486.735 421.001 480.436 438.36 456.567L550.15 302.857C574.648 269.171 555.107 221.481 514.015 214.672Z" stroke="black"/>
</g>
<g filter="url(#filter2_f_378_2)">
<path d="M754.33 292.604L763.028 280.629C764.826 278.154 767.941 277.01 770.914 277.733C779.583 279.844 778.052 292.604 769.13 292.604L754.33 292.604L671.352 406.846C667.966 411.508 663.259 415.046 657.839 417.001C632.518 426.136 609.642 398.597 623.265 375.381L645.503 337.484C648.186 332.911 649.601 327.705 649.601 322.403V312.142C649.601 301.352 658.348 292.604 669.139 292.604L754.33 292.604Z" fill="url(#paint2_linear_378_2)"/>
<path d="M649.601 312.142V322.403C649.601 327.705 648.186 332.911 645.503 337.484L623.265 375.381C609.642 398.597 632.518 426.136 657.839 417.001V417.001C663.259 415.046 667.967 411.508 671.352 406.846L763.028 280.629C764.826 278.154 767.941 277.01 770.914 277.733V277.733C779.583 279.844 778.052 292.604 769.13 292.604L669.139 292.604C658.348 292.604 649.601 301.352 649.601 312.142Z" stroke="black"/>
</g>
<g filter="url(#filter3_f_378_2)">
<path d="M450.509 136.236L563.687 122.671C574.882 121.329 585.839 126.597 591.782 136.178L656.817 241.025C670.808 263.58 705.235 257.048 709.992 230.936L719.503 178.721C719.833 176.911 720.334 175.137 721 173.422L745.459 110.424C749.965 98.8172 746.56 85.6295 736.997 77.6556L495.037 -124.114C477.575 -138.675 450.91 -128.392 447.746 -105.876L418.34 103.407C415.691 122.255 431.611 138.501 450.509 136.236Z" fill="url(#paint3_linear_378_2)"/>
</g>
<g filter="url(#filter4_f_378_2)">
<path d="M60 166.5C60 166.5 72.0381 96.196 105.5 73.5004C143.314 47.853 222.5 73.5004 222.5 73.5004" stroke="white" stroke-width="7"/>
</g>
<g filter="url(#filter5_f_378_2)">
<path d="M712.507 73.6494C712.507 73.6494 660.261 122.208 619.893 119.929C574.274 117.354 526.919 48.9016 526.919 48.9016" stroke="white" stroke-width="7"/>
</g>
<g filter="url(#filter6_f_378_2)">
<path d="M503.603 236.675C503.603 236.675 493.478 307.28 460.645 330.876C423.541 357.541 343.688 334.053 343.688 334.053" stroke="white" stroke-width="7"/>
</g>
</g>
<defs>
<filter id="filter0_f_378_2" x="-100.595" y="-92.7775" width="524.217" height="509.529" filterUnits="userSpaceOnUse" color-interpolation-filters="sRGB">
<feFlood flood-opacity="0" result="BackgroundImageFix"/>
<feBlend mode="normal" in="SourceGraphic" in2="BackgroundImageFix" result="shape"/>
<feGaussianBlur stdDeviation="35.9" result="effect1_foregroundBlur_378_2"/>
</filter>
<filter id="filter1_f_378_2" x="192.464" y="132.827" width="440.752" height="419.108" filterUnits="userSpaceOnUse" color-interpolation-filters="sRGB">
<feFlood flood-opacity="0" result="BackgroundImageFix"/>
<feBlend mode="normal" in="SourceGraphic" in2="BackgroundImageFix" result="shape"/>
<feGaussianBlur stdDeviation="35.9" result="effect1_foregroundBlur_378_2"/>
</filter>
<filter id="filter2_f_378_2" x="546.893" y="205.219" width="302.084" height="285.879" filterUnits="userSpaceOnUse" color-interpolation-filters="sRGB">
<feFlood flood-opacity="0" result="BackgroundImageFix"/>
<feBlend mode="normal" in="SourceGraphic" in2="BackgroundImageFix" result="shape"/>
<feGaussianBlur stdDeviation="35.9" result="effect1_foregroundBlur_378_2"/>
</filter>
<filter id="filter3_f_378_2" x="319.951" y="-228.974" width="525.575" height="581.831" filterUnits="userSpaceOnUse" color-interpolation-filters="sRGB">
<feFlood flood-opacity="0" result="BackgroundImageFix"/>
<feBlend mode="normal" in="SourceGraphic" in2="BackgroundImageFix" result="shape"/>
<feGaussianBlur stdDeviation="49.05" result="effect1_foregroundBlur_378_2"/>
</filter>
<filter id="filter4_f_378_2" x="13.1508" y="15.2016" width="253.825" height="195.29" filterUnits="userSpaceOnUse" color-interpolation-filters="sRGB">
<feFlood flood-opacity="0" result="BackgroundImageFix"/>
<feBlend mode="normal" in="SourceGraphic" in2="BackgroundImageFix" result="shape"/>
<feGaussianBlur stdDeviation="21.7" result="effect1_foregroundBlur_378_2"/>
</filter>
<filter id="filter5_f_378_2" x="480.643" y="3.51015" width="277.646" height="163.397" filterUnits="userSpaceOnUse" color-interpolation-filters="sRGB">
<feFlood flood-opacity="0" result="BackgroundImageFix"/>
<feBlend mode="normal" in="SourceGraphic" in2="BackgroundImageFix" result="shape"/>
<feGaussianBlur stdDeviation="21.7" result="effect1_foregroundBlur_378_2"/>
</filter>
<filter id="filter6_f_378_2" x="299.303" y="192.778" width="251.163" height="197.733" filterUnits="userSpaceOnUse" color-interpolation-filters="sRGB">
<feFlood flood-opacity="0" result="BackgroundImageFix"/>
<feBlend mode="normal" in="SourceGraphic" in2="BackgroundImageFix" result="shape"/>
<feGaussianBlur stdDeviation="21.7" result="effect1_foregroundBlur_378_2"/>
</filter>
<linearGradient id="paint0_linear_378_2" x1="187" y1="-30" x2="187" y2="268" gradientUnits="userSpaceOnUse">
<stop stop-color="#A532D1"/>
<stop offset="1" stop-color="#FFB800"/>
</linearGradient>
<linearGradient id="paint1_linear_378_2" x1="429" y1="201" x2="429" y2="499" gradientUnits="userSpaceOnUse">
<stop stop-color="#A532D1"/>
<stop offset="1" stop-color="#FFB800"/>
</linearGradient>
<linearGradient id="paint2_linear_378_2" x1="677.109" y1="262" x2="677.109" y2="414" gradientUnits="userSpaceOnUse">
<stop stop-color="#A532D1"/>
<stop offset="1" stop-color="#FFB800"/>
</linearGradient>
<linearGradient id="paint3_linear_378_2" x1="542.384" y1="227.446" x2="624.623" y2="-24.4702" gradientUnits="userSpaceOnUse">
<stop stop-color="#A532D1"/>
<stop offset="1" stop-color="#FFB800"/>
</linearGradient>
<clipPath id="clip0_378_2">
<rect width="775" height="373" fill="white"/>
</clipPath>
</defs>
</svg>
