<svg width="434" height="223" viewBox="0 0 434 223" fill="none" xmlns="http://www.w3.org/2000/svg">
<path d="M355.272 177.184C355.272 177.184 355.272 177.184 355.272 177.28C355.272 182.752 353.16 187.84 349.224 191.584C346.056 194.656 340.296 198.304 330.312 198.304C329.928 198.304 329.64 198.304 329.256 198.304C329.16 198.304 329.16 198.304 329.16 198.304C318.12 198.016 310.344 193.888 304.296 189.856C301.32 187.84 300.456 183.904 302.376 180.928C304.392 177.952 308.328 177.088 311.304 179.104C316.2 182.272 321.672 185.152 329.544 185.44C329.832 185.44 330.024 185.44 330.312 185.44C334.824 185.44 338.184 184.384 340.296 182.368C342.024 180.64 342.408 178.624 342.408 177.28C342.408 177.28 342.408 177.28 342.408 177.184C342.408 175.552 342.312 171.04 326.376 167.68C326.28 167.68 326.28 167.68 326.28 167.68C320.328 166.432 315.912 164.8 312.36 162.496C304.968 157.696 303.528 151.36 303.624 146.848C303.912 132.544 313.512 125.92 327.336 125.92C328.296 125.92 329.352 126.016 330.504 126.112H330.6C330.6 126.112 330.6 126.112 330.696 126.112C335.88 126.496 341.736 128.32 348.552 131.872C351.72 133.504 352.968 137.44 351.336 140.608C349.704 143.68 345.768 144.928 342.6 143.296C337.512 140.704 333.192 139.168 329.832 138.976C329.448 138.976 329.16 138.88 328.872 138.88C320.424 138.4 317.256 140.608 316.776 144.352C316.392 147.712 316.392 152.416 328.968 155.104C336.84 156.736 342.408 158.848 346.536 161.632C353.736 166.432 355.272 172.768 355.272 177.184ZM422.69 183.136C426.242 183.136 429.122 186.016 429.122 189.568C429.122 193.12 426.242 196 422.69 196H385.346C381.794 196 378.914 193.12 378.914 189.568V133.6C378.914 130.048 381.794 127.168 385.346 127.168H422.69C426.242 127.168 429.122 130.048 429.122 133.6C429.122 137.152 426.242 140.032 422.69 140.032H391.778V155.2H417.218C420.77 155.2 423.65 158.08 423.65 161.632C423.65 165.184 420.77 168.064 417.218 168.064H391.778V183.136H422.69Z" fill="white"/>
<path d="M37.632 127.168C50.784 127.552 61.44 138.304 61.44 151.552C61.44 164.8 50.784 175.648 37.632 175.936C37.44 176.032 37.152 176.032 36.96 176.032H20.352V189.568C20.352 193.12 17.472 196 13.92 196C10.368 196 7.488 193.12 7.488 189.568V133.6C7.488 130.048 10.368 127.168 13.92 127.168H36.96C37.152 127.168 37.44 127.168 37.632 127.168ZM36.96 163.168C43.392 163.168 48.48 157.984 48.48 151.552C48.48 145.216 43.296 140.032 36.96 140.032H20.352V163.168H36.96Z" fill="white"/>
<path d="M75 167.895H141.877C142.258 167.895 142.607 167.679 142.775 167.337L160.061 132.166C160.453 131.366 161.617 131.441 161.904 132.284L190.211 215.224C190.547 216.208 191.976 216.089 192.144 215.062L211.875 94.5M211.875 94.5L224.756 154.82C224.855 155.281 225.262 155.611 225.734 155.611H288M211.875 94.5V55.5M211.875 55.5V7.69148C211.875 6.93083 212.691 6.44867 213.357 6.81532L253.955 29.1502C254.636 29.5245 254.648 30.4978 253.978 30.8897L211.875 55.5Z" stroke="url(#paint0_linear_796_11)" stroke-width="13" stroke-linecap="round"/>
<defs>
<linearGradient id="paint0_linear_796_11" x1="192.75" y1="54" x2="192.75" y2="198" gradientUnits="userSpaceOnUse">
<stop stop-color="#A64AC9"/>
<stop offset="1" stop-color="#FFB800"/>
</linearGradient>
</defs>
</svg>
