<svg width="59" height="59" viewBox="0 0 59 59" fill="none" xmlns="http://www.w3.org/2000/svg">
<circle cx="29.5" cy="29.5" r="29.5" fill="white"/>
<path d="M27.6827 18.0599C27.8695 17.5983 28.1898 17.203 28.6027 16.9246C29.0156 16.6463 29.5022 16.4976 30.0002 16.4976C30.4981 16.4976 30.9848 16.6463 31.3977 16.9246C31.8106 17.203 32.1309 17.5983 32.3177 18.0599C34.1661 18.5683 35.7966 19.6694 36.9586 21.1941C38.1207 22.7188 38.7501 24.5828 38.7502 26.4999V32.3712L41.0402 35.8062C41.1658 35.9944 41.2379 36.2132 41.2489 36.4393C41.2599 36.6653 41.2093 36.8901 41.1025 37.0896C40.9958 37.2891 40.8368 37.456 40.6427 37.5722C40.4486 37.6885 40.2265 37.7499 40.0002 37.7499H34.3314C34.1809 38.7913 33.6603 39.7436 32.8648 40.4323C32.0694 41.1211 31.0524 41.5002 30.0002 41.5002C28.948 41.5002 27.931 41.1211 27.1356 40.4323C26.3401 39.7436 25.8194 38.7913 25.6689 37.7499H20.0002C19.7739 37.7499 19.5518 37.6885 19.3577 37.5722C19.1635 37.456 19.0046 37.2891 18.8978 37.0896C18.7911 36.8901 18.7405 36.6653 18.7515 36.4393C18.7625 36.2132 18.8346 35.9944 18.9602 35.8062L21.2502 32.3712V26.4999C21.2502 22.4699 23.9752 19.0749 27.6827 18.0599ZM28.2327 37.7499C28.3618 38.1157 28.6012 38.4325 28.9178 38.6565C29.2345 38.8806 29.6129 39.0009 30.0008 39.0009C30.3887 39.0009 30.7671 38.8806 31.0838 38.6565C31.4005 38.4325 31.6398 38.1157 31.7689 37.7499H28.2327ZM30.0002 20.2499C28.3426 20.2499 26.7529 20.9084 25.5808 22.0805C24.4087 23.2526 23.7502 24.8423 23.7502 26.4999V32.7499C23.7502 32.9968 23.6772 33.2382 23.5402 33.4437L22.3364 35.2499H37.6627L36.4589 33.4437C36.3224 33.2381 36.2498 32.9967 36.2502 32.7499V26.4999C36.2502 24.8423 35.5917 23.2526 34.4196 22.0805C33.2475 20.9084 31.6578 20.2499 30.0002 20.2499Z" fill="black"/>
</svg>
