<svg width="51" height="51" viewBox="0 0 51 51" fill="none" xmlns="http://www.w3.org/2000/svg">
<path fill-rule="evenodd" clip-rule="evenodd" d="M25.5 51C39.5833 51 51 39.5833 51 25.5C51 11.4167 39.5833 0 25.5 0C11.4167 0 0 11.4167 0 25.5C0 39.5833 11.4167 51 25.5 51ZM40.7196 25.677C40.8991 25.4975 41 25.2539 41 25C41 24.7461 40.8991 24.5025 40.7196 24.323C40.54 24.1434 40.2965 24.0426 40.0426 24.0426H26.9574V10.9574C26.9574 10.7035 26.8566 10.46 26.677 10.2804C26.4975 10.1009 26.2539 10 26 10C25.7461 10 25.5025 10.1009 25.323 10.2804C25.1434 10.46 25.0426 10.7035 25.0426 10.9574V24.0426H11.9574C11.7035 24.0426 11.46 24.1434 11.2804 24.323C11.1009 24.5025 11 24.7461 11 25C11 25.2539 11.1009 25.4975 11.2804 25.677C11.46 25.8566 11.7035 25.9574 11.9574 25.9574H25.0426V39.0426C25.0426 39.2965 25.1434 39.54 25.323 39.7196C25.5025 39.8991 25.7461 40 26 40C26.2539 40 26.4975 39.8991 26.677 39.7196C26.8566 39.54 26.9574 39.2965 26.9574 39.0426V25.9574H40.0426C40.2965 25.9574 40.54 25.8566 40.7196 25.677Z" fill="#F5F5F5"/>
</svg>
