<svg width="34" height="34" viewBox="0 0 34 34" fill="none" xmlns="http://www.w3.org/2000/svg">
<path d="M14.166 10.6253C14.166 10.4375 14.2406 10.2573 14.3735 10.1245C14.5063 9.99162 14.6865 9.91699 14.8743 9.91699H20.541C20.7289 9.91699 20.909 9.99162 21.0419 10.1245C21.1747 10.2573 21.2493 10.4375 21.2493 10.6253C21.2493 10.8132 21.1747 10.9934 21.0419 11.1262C20.909 11.259 20.7289 11.3337 20.541 11.3337H14.8743C14.6865 11.3337 14.5063 11.259 14.3735 11.1262C14.2406 10.9934 14.166 10.8132 14.166 10.6253ZM14.8743 12.7503C14.6865 12.7503 14.5063 12.825 14.3735 12.9578C14.2406 13.0906 14.166 13.2708 14.166 13.4587C14.166 13.6465 14.2406 13.8267 14.3735 13.9595C14.5063 14.0924 14.6865 14.167 14.8743 14.167H20.541C20.7289 14.167 20.909 14.0924 21.0419 13.9595C21.1747 13.8267 21.2493 13.6465 21.2493 13.4587C21.2493 13.2708 21.1747 13.0906 21.0419 12.9578C20.909 12.825 20.7289 12.7503 20.541 12.7503H14.8743ZM14.166 19.8337C14.166 19.6458 14.2406 19.4656 14.3735 19.3328C14.5063 19.2 14.6865 19.1253 14.8743 19.1253H20.541C20.7289 19.1253 20.909 19.2 21.0419 19.3328C21.1747 19.4656 21.2493 19.6458 21.2493 19.8337C21.2493 20.0215 21.1747 20.2017 21.0419 20.3345C20.909 20.4674 20.7289 20.542 20.541 20.542H14.8743C14.6865 20.542 14.5063 20.4674 14.3735 20.3345C14.2406 20.2017 14.166 20.0215 14.166 19.8337ZM14.8743 21.9587C14.6865 21.9587 14.5063 22.0333 14.3735 22.1661C14.2406 22.299 14.166 22.4791 14.166 22.667C14.166 22.8549 14.2406 23.035 14.3735 23.1679C14.5063 23.3007 14.6865 23.3753 14.8743 23.3753H20.541C20.7289 23.3753 20.909 23.3007 21.0419 23.1679C21.1747 23.035 21.2493 22.8549 21.2493 22.667C21.2493 22.4791 21.1747 22.299 21.0419 22.1661C20.909 22.0333 20.7289 21.9587 20.541 21.9587H14.8743Z" fill="#A64AC9"/>
<path fill-rule="evenodd" clip-rule="evenodd" d="M7.08398 19.1253C7.08398 18.9375 7.15861 18.7573 7.29145 18.6245C7.42429 18.4916 7.60446 18.417 7.79232 18.417H11.334C11.5218 18.417 11.702 18.4916 11.8349 18.6245C11.9677 18.7573 12.0423 18.9375 12.0423 19.1253V22.667C12.0423 22.8549 11.9677 23.035 11.8349 23.1679C11.702 23.3007 11.5218 23.3753 11.334 23.3753H7.79232C7.60446 23.3753 7.42429 23.3007 7.29145 23.1679C7.15861 23.035 7.08398 22.8549 7.08398 22.667V19.1253ZM8.50065 19.8337V21.9587H10.6257V19.8337H8.50065Z" fill="#A64AC9"/>
<path d="M12.5422 11.1262C12.6712 10.9926 12.7426 10.8137 12.741 10.628C12.7394 10.4422 12.6649 10.2646 12.5336 10.1332C12.4023 10.0019 12.2246 9.92742 12.0389 9.92581C11.8532 9.92419 11.6742 9.99559 11.5406 10.1246L9.20809 12.4572L8.29222 11.5413C8.15862 11.4123 7.9797 11.3409 7.79398 11.3425C7.60825 11.3441 7.43059 11.4186 7.29926 11.5499C7.16793 11.6812 7.09344 11.8589 7.09182 12.0446C7.09021 12.2303 7.16161 12.4093 7.29063 12.5429L9.20809 14.4603L12.5422 11.1262Z" fill="#A64AC9"/>
<path fill-rule="evenodd" clip-rule="evenodd" d="M7.08333 4.25C6.33189 4.25 5.61122 4.54851 5.07986 5.07986C4.54851 5.61122 4.25 6.33189 4.25 7.08333V26.9167C4.25 27.6681 4.54851 28.3888 5.07986 28.9201C5.61122 29.4515 6.33189 29.75 7.08333 29.75H21.25C22.0014 29.75 22.7221 29.4515 23.2535 28.9201C23.7848 28.3888 24.0833 27.6681 24.0833 26.9167V7.08333C24.0833 6.33189 23.7848 5.61122 23.2535 5.07986C22.7221 4.54851 22.0014 4.25 21.25 4.25H7.08333ZM5.66667 7.08333C5.66667 6.70761 5.81592 6.34728 6.0816 6.0816C6.34728 5.81592 6.70761 5.66667 7.08333 5.66667H21.25C21.6257 5.66667 21.9861 5.81592 22.2517 6.0816C22.5174 6.34728 22.6667 6.70761 22.6667 7.08333V26.9167C22.6667 27.2924 22.5174 27.6527 22.2517 27.9184C21.9861 28.1841 21.6257 28.3333 21.25 28.3333H7.08333C6.70761 28.3333 6.34728 28.1841 6.0816 27.9184C5.81592 27.6527 5.66667 27.2924 5.66667 26.9167V7.08333ZM25.5 11.3333C25.5 10.7697 25.7239 10.2292 26.1224 9.83073C26.5209 9.43222 27.0614 9.20833 27.625 9.20833C28.1886 9.20833 28.7291 9.43222 29.1276 9.83073C29.5261 10.2292 29.75 10.7697 29.75 11.3333V25.7146L27.625 28.9021L25.5 25.7146V11.3333ZM27.625 10.625C27.4371 10.625 27.257 10.6996 27.1241 10.8325C26.9913 10.9653 26.9167 11.1455 26.9167 11.3333V12.75H28.3333V11.3333C28.3333 11.1455 28.2587 10.9653 28.1259 10.8325C27.993 10.6996 27.8129 10.625 27.625 10.625ZM27.625 26.3479L26.9167 25.2854V14.1667H28.3333V25.2854L27.625 26.3479Z" fill="#A64AC9"/>
</svg>
